# xmcd
# 
# Track frame offsets:
#     150
#     19050
#     33140
#     44540
#     56210
#     71312
#     86710
#     101020
#     112617
# 
# Disc length: 1651
# 
# Revision: 0
# Processed by: cddbd v1.5.2PL0 Copyright (c) Steve Scherf et al.
# Submitted via: fre:ac v1.0.31
# 
DISCID=6b067109
DTITLE=Wayne Newton - Coming Home
DYEAR=1989
DGENRE=Country
TTITLE0=While the Feeling's Good
TTITLE1=A Good Woman's Love
TTITLE2=Our Wedding Band
TTITLE3=Lay a Little Loving on Me
TTITLE4=Cryin' on Your Shoulder Again.
TTITLE5=Take Away my Pain
TTITLE6=Don't Let the Good Life Pass You By
TTITLE7=Lyin' Again
TTITLE8=You Don't Have to Say You Love Me
EXTD=
EXTT0=
EXTT1=
EXTT2=
EXTT3=
EXTT4=
EXTT5=
EXTT6=
EXTT7=
EXTT8=
PLAYORDER=
